<mxfile host="app.diagrams.net" modified="2023-06-08T00:34:54.719Z" agent="Mozilla/5.0 (Macintosh; Intel Mac OS X 10_15_7) AppleWebKit/537.36 (KHTML, like Gecko) Chrome/111.0.0.0 Safari/537.36" version="21.3.5" etag="XMLGXY7SoXEO5UJ9lpbq" type="github">
  <diagram name="第 1 页" id="3-346QB0kaLJTLDR2yeY">
    <mxGraphModel>
      <root>
        <mxCell id="0" />
        <mxCell id="1" parent="0" />
      </root>
    </mxGraphModel>
  </diagram>
</mxfile>
